<?xml version="1.0" encoding="iso-8859-1"?>
<!-- Generator: Adobe Illustrator 16.0.0, SVG Export Plug-In . SVG Version: 6.00 Build 0)  -->
<!DOCTYPE svg PUBLIC "-//W3C//DTD SVG 1.1//EN" "http://www.w3.org/Graphics/SVG/1.1/DTD/svg11.dtd">
<svg version="1.1" id="Capa_1" xmlns="http://www.w3.org/2000/svg" xmlns:xlink="http://www.w3.org/1999/xlink" x="0px" y="0px"
	 width="587.029px" height="587.028px" viewBox="0 0 587.029 587.028" style="enable-background:new 0 0 587.029 587.028;"
	 xml:space="preserve">
<g>
	<g>
		<path d="M402.372,186.217c-10.973,0-19.896,8.923-19.896,19.896s8.923,19.902,19.896,19.902c10.967,0,19.896-8.929,19.896-19.902
			S413.345,186.217,402.372,186.217z"/>
		<path d="M360.364,67.14c-2.705-1.499-5.654-2.025-8.715-2.025c-38.745,0-77.497,0-116.243,0c-1.72,0-3.421,0.159-5.085,0.606
			c-3.709,0.991-6.732,2.962-8.807,6.249c-1.965,3.121-2.577,6.548-2.038,10.159c0.747,4.988,3.403,8.617,7.944,10.832
			c2.515,1.23,5.208,1.634,7.98,1.634c19.382,0,38.764,0,58.14,0c19.37,0,38.733,0,58.103,0c1.652,0,3.286-0.141,4.896-0.539
			c3.5-0.869,6.426-2.625,8.543-5.587c2.332-3.274,3.085-6.953,2.51-10.888C366.907,72.936,364.483,69.429,360.364,67.14z
			 M249.366,88.976c-0.349,0-0.679,0-1.004,0c-1.395,0-2.797-0.012-4.192,0.006c-0.306,0.006-0.465-0.098-0.625-0.355
			c-2.466-3.99-4.939-7.974-7.417-11.958c-0.08-0.129-0.165-0.257-0.251-0.386c-0.037,0.006-0.067,0.012-0.104,0.024
			c0,2.099,0,4.198,0,6.297c0,2.105,0,4.21,0,6.347c-1.879,0-3.715,0-5.594,0c0-6.083,0-12.167,0-18.299c0.147,0,0.288,0,0.422,0
			c1.585,0,3.164,0.012,4.75-0.006c0.336-0.006,0.532,0.086,0.716,0.392c2.436,3.979,4.89,7.938,7.344,11.91
			c0.08,0.135,0.166,0.263,0.337,0.379c0-4.21,0-8.421,0-12.65c1.903,0,3.739,0,5.606,0
			C249.366,76.773,249.366,82.856,249.366,88.976z M252.591,70.646c0.918,0,1.824,0,2.729,0c0.894,0,1.793,0,2.724,0
			c0,1.218,0,2.424,0,3.666c-1.793,0-3.605,0-5.453,0C252.591,73.095,252.591,71.895,252.591,70.646z M258.062,88.952
			c-1.817,0-3.611,0-5.44,0c0-4.033,0-8.06,0-12.112c1.812,0,3.611,0,5.44,0C258.062,80.897,258.062,84.912,258.062,88.952z
			 M277.188,88.952c-1.787,0-3.562,0-5.404,0c0-0.147,0-0.3,0-0.453c0-2.411,0-4.822,0-7.234c0-1.261-0.765-2.24-1.946-2.491
			c-1.273-0.269-2.595,0.343-3.066,1.457c-0.135,0.318-0.178,0.692-0.184,1.034c-0.012,2.399,0,4.798,0.006,7.197
			c0,0.153,0,0.312,0,0.49c-1.842,0-3.604,0-5.404,0c0-4.039,0-8.066,0-12.118c1.781,0,3.556,0,5.398,0c0,0.379,0,0.759,0,1.236
			c0.196-0.159,0.312-0.239,0.416-0.331c2.516-2.111,6.365-1.946,8.635,0.367c1.059,1.083,1.53,2.423,1.555,3.905
			c0.037,2.252,0.012,4.51,0.012,6.762C277.212,88.835,277.194,88.884,277.188,88.952z M285.78,88.945c-1.842,0-3.647,0-5.514,0
			c0-4.033,0-8.072,0-12.142c-1.01,0-1.964,0-2.987,0c0-0.563-0.012-1.095,0.019-1.628c0-0.061,0.214-0.147,0.336-0.153
			c0.857-0.012,1.714-0.006,2.62-0.006c0-0.82,0-1.616,0-2.442c1.848,0,3.647,0,5.508,0c0,0.802,0,1.585,0,2.424
			c0.998,0,1.965,0,2.956,0c0,0.624,0,1.193,0,1.799c-0.985,0-1.94,0-2.932,0C285.78,80.855,285.78,84.882,285.78,88.945z
			 M294.018,86.399c0.172,1.181,1.157,1.854,2.326,1.812c1.07-0.043,1.939-0.856,2.099-2.007c0.067-0.465,0.073-0.942,0.116-1.462
			c0.894,0,1.781,0,2.675,0c0.881,0,1.763,0,2.705,0c-0.073,0.202-0.123,0.373-0.196,0.532c-0.954,2.056-2.601,3.335-4.719,3.978
			c-3.065,0.937-5.96,0.539-8.506-1.481c-1.702-1.347-2.589-3.134-2.436-5.349c0.117-1.708,0.906-3.097,2.167-4.21
			c1.891-1.665,4.131-2.301,6.621-2.124c2.143,0.153,4.009,0.942,5.533,2.479c1.193,1.206,1.909,2.889,1.848,4.364
			c-3.457,0-6.891,0-10.416,0C293.889,84.123,293.853,85.28,294.018,86.399z M322.004,88.945c-1.775,0-3.544,0-5.368,0
			c-0.012-0.153-0.03-0.318-0.03-0.483c0-2.375,0-4.749,0-7.118c0-1.254-0.587-2.124-1.677-2.491c-1.102-0.373-2.35,0-3.054,0.912
			c-0.331,0.422-0.465,0.899-0.465,1.438c0.006,2.399,0.006,4.798,0.006,7.197c0,0.171,0,0.343,0,0.544c-1.812,0-3.593,0-5.404,0
			c0-4.027,0-8.054,0-12.105c1.793,0,3.562,0,5.398,0c0,0.386,0,0.771,0,1.273c0.208-0.171,0.324-0.27,0.44-0.367
			c2.662-2.222,6.787-1.897,8.923,0.71c0.753,0.918,1.193,1.977,1.218,3.151c0.049,2.375,0.03,4.743,0.043,7.118
			C322.035,88.786,322.016,88.848,322.004,88.945z M339.36,88.952c-1.787,0-3.562,0-5.367,0c-0.018-0.202-0.036-0.404-0.055-0.667
			c-1.854,1.077-3.782,1.353-5.796,0.661c-1.321-0.453-2.368-1.303-3.17-2.442c-1.53-2.167-1.506-5.159,0.067-7.375
			c0.661-0.93,1.487-1.665,2.516-2.179c1.016-0.508,2.087-0.698,3.213-0.624c1.145,0.073,2.154,0.52,3.2,1.089
			c0-1.175,0-2.277,0-3.378c0-1.107,0-2.215,0-3.366c1.818,0,3.593,0,5.392,0C339.36,76.767,339.36,82.85,339.36,88.952z
			 M354.844,87.722c-1.628,1.328-3.52,1.909-5.784,1.916c-2.031-0.025-4.021-0.68-5.679-2.173c-2.901-2.619-2.864-6.793,0.067-9.376
			c3.176-2.791,8.402-2.815,11.561-0.055C358.125,80.757,358.05,85.108,354.844,87.722z"/>
		<path d="M440.303,228.139c-10.973,0-19.896,8.923-19.896,19.896s8.923,19.896,19.896,19.896c10.968,0,19.896-8.923,19.896-19.896
			S451.277,228.139,440.303,228.139z"/>
		<path d="M535.017,94.319V76.351c-36.935-28.948-120.283-30.447-120.283-30.447l-4.485-6.983
			C358.822,7.77,294.703,9.93,293.516,9.973C292.335,9.93,228.209,7.77,176.789,38.92l-4.492,6.989c0,0-83.348,1.5-120.282,30.447
			v17.969c0,0-41.09,36.267-41.09,81.518s-30.612,188.325,10.649,266.844c41.255,78.514,77.853-61.23,81.849-87.18
			c3.997-25.948,17.968-57.895,26.616-62.552c0,0,76.524-5.325,79.854,54.565c3.323,59.854,24.927,226.703,83.569,229.567v0.013
			c0.019,0,0.036-0.007,0.055-0.007s0.037,0.007,0.056,0.007v-0.013c58.641-2.87,80.245-169.72,83.568-229.567
			c3.329-59.89,79.854-54.565,79.854-54.565c8.653,4.657,22.626,36.597,26.616,62.552s40.594,165.699,81.849,87.174
			c41.255-78.526,10.648-221.593,10.648-266.844C576.113,130.586,535.017,94.319,535.017,94.319z M161.048,192.802
			c0,4.988-4.058,9.052-9.051,9.052H130.1v21.891c0,4.988-4.058,9.051-9.051,9.051h-15.967c-4.988,0-9.051-4.058-9.051-9.051
			v-21.891H74.132c-4.988,0-9.052-4.064-9.052-9.052v-15.967c0-4.988,4.058-9.052,9.052-9.052H96.03v-21.891
			c0-4.988,4.057-9.051,9.051-9.051h15.967c4.988,0,9.051,4.057,9.051,9.051v21.891h21.897c4.988,0,9.051,4.058,9.051,9.052V192.802
			z M485.224,114.717c11.047,0,20.031,8.984,20.031,20.024c0,11.041-8.984,20.025-20.031,20.025
			c-11.04,0-20.024-8.984-20.024-20.025C465.2,123.701,474.177,114.717,485.224,114.717z M451.283,148.652
			c11.047,0,20.031,8.984,20.031,20.024s-8.984,20.031-20.031,20.031c-11.04,0-20.024-8.99-20.024-20.031
			S440.243,148.652,451.283,148.652z M293.516,388.066c-34.651,0-62.84-28.188-62.84-62.84s28.188-62.847,62.84-62.847
			c34.651,0,62.839,28.188,62.839,62.847C356.356,359.878,328.167,388.066,293.516,388.066z M267.5,211.101
			c0-14.345,11.671-26.016,26.016-26.016s26.016,11.671,26.016,26.016c0,14.352-11.671,26.022-26.016,26.022
			S267.5,225.452,267.5,211.101z M371.839,85.353c-2.105,7.411-8.403,12.656-16.543,13.746c-0.752,0.098-1.512,0.165-2.271,0.251
			c-39.663,0-79.32,0-118.984,0c-0.496-0.055-0.991-0.11-1.487-0.159c-2.834-0.282-5.539-1.028-8.036-2.405
			c-5.587-3.084-8.886-7.791-9.859-14.113c-0.104-0.685-0.159-1.383-0.239-2.075c0-0.477,0-0.948,0-1.426
			c0.08-0.704,0.141-1.414,0.239-2.111c0.716-4.902,2.962-8.972,6.799-12.105c3.929-3.213,8.519-4.584,13.531-4.584
			c39.027-0.012,78.048-0.006,117.075-0.006c2.051,0,4.07,0.251,6.053,0.789C369.245,64.159,374.764,75.047,371.839,85.353z
			 M376.356,206.113c0-14.345,11.671-26.016,26.016-26.016c14.346,0,26.017,11.671,26.017,26.016
			c0,14.352-11.671,26.022-26.017,26.022C388.027,232.135,376.356,220.458,376.356,206.113z M440.303,274.051
			c-14.345,0-26.016-11.671-26.016-26.016s11.671-26.016,26.016-26.016c14.346,0,26.017,11.671,26.017,26.016
			S454.649,274.051,440.303,274.051z M485.224,222.649c-11.04,0-20.024-8.984-20.024-20.024s8.984-20.025,20.024-20.025
			c11.047,0,20.031,8.984,20.031,20.025S496.265,222.649,485.224,222.649z M519.16,188.714c-11.04,0-20.024-8.99-20.024-20.031
			s8.984-20.025,20.024-20.025c11.047,0,20.031,8.984,20.031,20.025S530.207,188.714,519.16,188.714z"/>
		<path d="M351.208,78.798c-0.33-0.894-1.053-1.346-1.995-1.346c-0.924,0-1.64,0.44-1.977,1.316
			c-0.184,0.477-0.288,1.022-0.294,1.536c-0.037,1.67-0.019,3.348-0.012,5.018c0,0.288,0.03,0.582,0.079,0.863
			c0.202,1.132,1.034,1.916,2.068,1.952c1.292,0.049,2.283-0.826,2.362-2.191c0.062-1.053,0.013-2.105,0.013-3.158
			c0.019,0,0.03,0,0.049,0c0-0.79,0.036-1.585-0.013-2.375C351.459,79.87,351.398,79.307,351.208,78.798z"/>
		<circle cx="485.224" cy="202.618" r="13.905"/>
		<circle cx="519.16" cy="168.683" r="13.911"/>
		<path d="M293.516,268.506c-31.273,0-56.72,25.447-56.72,56.726s25.447,56.721,56.72,56.721s56.72-25.441,56.72-56.721
			S324.794,268.506,293.516,268.506z M293.516,355.796c-16.854,0-30.563-13.709-30.563-30.563s13.708-30.563,30.563-30.563
			c16.854,0,30.563,13.709,30.563,30.563S310.37,355.796,293.516,355.796z"/>
		<circle cx="451.283" cy="168.683" r="13.911"/>
		<path d="M293.516,300.783c-13.476,0-24.443,10.967-24.443,24.443s10.967,24.443,24.443,24.443s24.443-10.967,24.443-24.443
			S306.992,300.783,293.516,300.783z"/>
		<circle cx="485.224" cy="134.748" r="13.905"/>
		<path d="M296.276,77.513c-1.09-0.037-2.062,0.716-2.27,1.812c-0.092,0.459-0.074,0.942-0.117,1.414
			c-0.024,0.257,0.08,0.349,0.337,0.343c0.661-0.012,1.316-0.006,1.976-0.006c0.661,0,1.316-0.012,1.978,0.006
			c0.281,0.006,0.379-0.092,0.354-0.367c-0.037-0.416-0.03-0.844-0.092-1.261C298.277,78.352,297.365,77.544,296.276,77.513z"/>
		<path d="M151.997,173.903h-28.018v-28.011c0-1.616-1.316-2.932-2.931-2.932h-15.967c-1.616,0-2.932,1.316-2.932,2.932v28.011
			H74.132c-1.616,0-2.932,1.316-2.932,2.932v15.967c0,1.622,1.316,2.932,2.932,2.932h28.017v28.011c0,1.616,1.316,2.931,2.932,2.931
			h15.967c1.615,0,2.931-1.315,2.931-2.931v-28.011h28.018c1.616,0,2.931-1.316,2.931-2.932v-15.967
			C154.928,175.219,153.613,173.903,151.997,173.903z"/>
		<path d="M313.417,211.101c0-10.973-8.923-19.896-19.896-19.896c-10.973,0-19.896,8.923-19.896,19.896s8.923,19.902,19.896,19.902
			C304.495,231.003,313.417,222.074,313.417,211.101z"/>
		<path d="M331.802,78.266c-1.206,0.018-2.087,0.814-2.118,2.001c-0.042,1.702-0.036,3.403,0,5.098
			c0.025,1.181,0.912,2.001,2.1,2.038c1.163,0.037,2.1-0.753,2.185-1.94c0.062-0.863,0.013-1.738,0.013-2.607l0,0
			c0-0.894,0.049-1.793-0.013-2.687C333.876,78.994,332.977,78.248,331.802,78.266z"/>
	</g>
</g>
<g>
</g>
<g>
</g>
<g>
</g>
<g>
</g>
<g>
</g>
<g>
</g>
<g>
</g>
<g>
</g>
<g>
</g>
<g>
</g>
<g>
</g>
<g>
</g>
<g>
</g>
<g>
</g>
<g>
</g>
</svg>
